<svg xmlns="http://www.w3.org/2000/svg" xmlns:xlink="http://www.w3.org/1999/xlink" width="852" zoomAndPan="magnify" viewBox="0 0 639 651.750002" height="869" preserveAspectRatio="xMidYMid meet" version="1.0"><defs><filter x="0%" y="0%" width="100%" height="100%" id="f7682cafc3"><feColorMatrix values="0 0 0 0 1 0 0 0 0 1 0 0 0 0 1 0 0 0 1 0" color-interpolation-filters="sRGB"/></filter><clipPath id="2a9021f00b"><path d="M 0.121094 0 L 638.875 0 L 638.875 651.5 L 0.121094 651.5 Z M 0.121094 0 " clip-rule="nonzero"/></clipPath><clipPath id="cc8106d5f7"><path d="M 0.121094 0 L 638.609375 0 L 638.609375 651 L 0.121094 651 Z M 0.121094 0 " clip-rule="nonzero"/></clipPath><clipPath id="aa88441ab6"><path d="M 319.367188 0 C 143.054688 0 0.121094 145.84375 0.121094 325.75 C 0.121094 505.65625 143.054688 651.5 319.367188 651.5 C 495.679688 651.5 638.609375 505.65625 638.609375 325.75 C 638.609375 145.84375 495.679688 0 319.367188 0 Z M 319.367188 0 " clip-rule="nonzero"/></clipPath><clipPath id="753c214634"><path d="M 0.121094 0 L 638.609375 0 L 638.609375 651.5 L 0.121094 651.5 Z M 0.121094 0 " clip-rule="nonzero"/></clipPath><clipPath id="fc19f1d2f5"><path d="M 319.367188 0 C 143.050781 0 0.121094 145.84375 0.121094 325.75 C 0.121094 505.65625 143.050781 651.5 319.367188 651.5 C 495.679688 651.5 638.609375 505.65625 638.609375 325.75 C 638.609375 145.84375 495.679688 0 319.367188 0 Z M 319.367188 0 " clip-rule="nonzero"/></clipPath><mask id="e501dac658"><g filter="url(#f7682cafc3)"><rect x="-63.9" width="766.8" fill="#000000" y="-65.175" height="782.100003" fill-opacity="0.78"/></g></mask><clipPath id="88d59a66ec"><path d="M 24.46875 25.128906 L 45.324219 25.128906 L 45.324219 45.984375 L 24.46875 45.984375 Z M 24.46875 25.128906 " clip-rule="nonzero"/></clipPath><clipPath id="b1f0ff6103"><path d="M 34.894531 25.128906 C 29.136719 25.128906 24.46875 29.796875 24.46875 35.558594 C 24.46875 41.316406 29.136719 45.984375 34.894531 45.984375 C 40.65625 45.984375 45.324219 41.316406 45.324219 35.558594 C 45.324219 29.796875 40.65625 25.128906 34.894531 25.128906 Z M 34.894531 25.128906 " clip-rule="nonzero"/></clipPath><clipPath id="56e03f3fd8"><path d="M 24.46875 25.128906 L 45.320312 25.128906 L 45.320312 45.980469 L 24.46875 45.980469 Z M 24.46875 25.128906 " clip-rule="nonzero"/></clipPath><clipPath id="6e9f202921"><path d="M 34.894531 25.128906 C 29.136719 25.128906 24.46875 29.796875 24.46875 35.554688 C 24.46875 41.3125 29.136719 45.980469 34.894531 45.980469 C 40.652344 45.980469 45.320312 41.3125 45.320312 35.554688 C 45.320312 29.796875 40.652344 25.128906 34.894531 25.128906 Z M 34.894531 25.128906 " clip-rule="nonzero"/></clipPath><clipPath id="8ba7288acb"><rect x="0" width="70" y="0" height="71"/></clipPath></defs><g clip-path="url(#2a9021f00b)"><path fill="#ffffff" d="M 0.121094 0 L 638.878906 0 L 638.878906 651.5 L 0.121094 651.5 Z M 0.121094 0 " fill-opacity="1" fill-rule="nonzero"/></g><g clip-path="url(#cc8106d5f7)"><g clip-path="url(#aa88441ab6)"><path fill="#5271ff" d="M 0.121094 0 L 638.609375 0 L 638.609375 650.960938 L 0.121094 650.960938 Z M 0.121094 0 " fill-opacity="1" fill-rule="nonzero"/></g></g><g clip-path="url(#753c214634)"><g clip-path="url(#fc19f1d2f5)"><path stroke-linecap="butt" transform="matrix(0.749712, 0, 0, 0.749712, 0.122506, 0.00168614)" fill="none" stroke-linejoin="miter" d="M 425.822866 -0.00224905 C 190.64414 -0.00224905 -0.00188438 194.530683 -0.00188438 434.497704 C -0.00188438 674.464725 190.64414 868.997656 425.822866 868.997656 C 660.996383 868.997656 851.642407 674.464725 851.642407 434.497704 C 851.642407 194.530683 660.996383 -0.00224905 425.822866 -0.00224905 Z M 425.822866 -0.00224905 " stroke="#5e17eb" stroke-width="14" stroke-opacity="1" stroke-miterlimit="4"/></g></g><path stroke-linecap="butt" transform="matrix(-0.616997, 0.425892, -0.425892, -0.616997, 226.27492, 344.537409)" fill="none" stroke-linejoin="miter" d="M 0.000072027 2.498143 L 66.904674 2.501261 " stroke="#ffffff" stroke-width="5" stroke-opacity="1" stroke-miterlimit="4"/><path stroke-linecap="butt" transform="matrix(-0.493689, 0.564216, -0.564216, -0.493689, 185.350083, 372.720679)" fill="none" stroke-linejoin="miter" d="M 0.000195171 2.496527 L 31.07942 2.497015 " stroke="#ffffff" stroke-width="5" stroke-opacity="1" stroke-miterlimit="4"/><path stroke-linecap="butt" transform="matrix(0, 0.749712, -0.749712, 0, 227.093102, 342.993323)" fill="none" stroke-linejoin="miter" d="M -0.00151468 2.500095 L 24.361995 2.500095 " stroke="#ffffff" stroke-width="5" stroke-opacity="1" stroke-miterlimit="4"/><path stroke-linecap="butt" transform="matrix(0.477922, 0.577632, -0.577632, 0.477922, 225.943991, 359.528757)" fill="none" stroke-linejoin="miter" d="M 1.160267 2.215524 C 36.572727 20.715382 71.991378 20.711347 107.406255 2.215462 " stroke="#ffffff" stroke-width="5" stroke-opacity="1" stroke-miterlimit="4"/><path stroke-linecap="butt" transform="matrix(0.749712, 0, 0, 0.749712, 275.576797, 420.804255)" fill="none" stroke-linejoin="miter" d="M 0.564488 2.433802 C 45.508806 12.828413 82.538631 12.828413 111.659173 2.433802 " stroke="#ffffff" stroke-width="5" stroke-opacity="1" stroke-miterlimit="4"/><path stroke-linecap="butt" transform="matrix(0.438327, -0.608226, 0.608226, 0.438327, 357.769086, 421.532016)" fill="none" stroke-linejoin="miter" d="M -0.00162085 2.500202 C 2.991722 2.500922 5.985065 2.501643 8.975362 2.498136 " stroke="#ffffff" stroke-width="5" stroke-opacity="1" stroke-miterlimit="4"/><path stroke-linecap="butt" transform="matrix(-0.516653, -0.543266, 0.543266, -0.516653, 365.0169, 400.659708)" fill="none" stroke-linejoin="miter" d="M 1.945498 1.567427 C 7.948113 9.016053 13.951675 9.016419 19.956182 1.568523 " stroke="#ffffff" stroke-width="5" stroke-opacity="1" stroke-miterlimit="4"/><path stroke-linecap="butt" transform="matrix(-0.0666601, 0.746743, -0.746743, -0.0666601, 366.7314, 398.971157)" fill="none" stroke-linejoin="miter" d="M 0.00038987 2.501654 L 24.596446 2.497829 " stroke="#ffffff" stroke-width="5" stroke-opacity="1" stroke-miterlimit="4"/><path stroke-linecap="butt" transform="matrix(0, 0.749712, -0.749712, 0, 357.432066, 389.025578)" fill="none" stroke-linejoin="miter" d="M 0.00235557 2.498921 L 31.149716 2.498921 " stroke="#ffffff" stroke-width="5" stroke-opacity="1" stroke-miterlimit="4"/><path stroke-linecap="butt" transform="matrix(-0.747871, 0.0525139, -0.0525139, -0.747871, 357.67461, 421.326319)" fill="none" stroke-linejoin="miter" d="M 1.988852 12.119167 C 11.768809 -0.706421 42.19891 -0.705958 93.279152 12.120558 " stroke="#ffffff" stroke-width="5" stroke-opacity="1" stroke-miterlimit="4"/><path stroke-linecap="butt" transform="matrix(-0.443799, -0.604244, 0.604244, -0.443799, 272.639858, 429.305322)" fill="none" stroke-linejoin="miter" d="M 1.491733 25.326541 C 42.412104 -5.108776 83.332979 -5.107985 124.25436 25.328914 " stroke="#ffffff" stroke-width="5" stroke-opacity="1" stroke-miterlimit="4"/><path stroke-linecap="butt" transform="matrix(0.446082, -0.602561, 0.602561, 0.446082, 225.638939, 338.476014)" fill="none" stroke-linejoin="miter" d="M 0.849717 11.263108 C 33.127134 -0.418718 65.404722 -0.418754 97.679378 11.258814 " stroke="#ffffff" stroke-width="5" stroke-opacity="1" stroke-miterlimit="4"/><path stroke-linecap="butt" transform="matrix(0.623395, -0.41647, 0.41647, 0.623395, 272.820727, 280.102791)" fill="none" stroke-linejoin="miter" d="M 0.165243 7.395889 C 100.13832 0.871444 192.922994 0.867485 278.517809 7.39557 " stroke="#ffffff" stroke-width="5" stroke-opacity="1" stroke-miterlimit="4"/><path stroke-linecap="butt" transform="matrix(-0.313321, 0.681101, -0.681101, -0.313321, 486.508535, 118.514527)" fill="none" stroke-linejoin="miter" d="M 1.459206 16.845094 C 28.122118 -2.279721 54.785844 -2.27802 81.452941 16.843286 " stroke="#ffffff" stroke-width="5" stroke-opacity="1" stroke-miterlimit="4"/><path stroke-linecap="butt" transform="matrix(0.67246, 0.331461, -0.331461, 0.67246, 447.328061, 91.503056)" fill="none" stroke-linejoin="miter" d="M 2.192859 11.130688 C 8.486874 -0.377159 23.097023 -0.37559 46.018699 11.126045 " stroke="#ffffff" stroke-width="5" stroke-opacity="1" stroke-miterlimit="4"/><path stroke-linecap="butt" transform="matrix(-0.743669, 0.0950014, -0.0950014, -0.743669, 442.677109, 109.300393)" fill="none" stroke-linejoin="miter" d="M 1.840545 7.850979 C 8.40391 0.71587 14.969301 0.719403 21.53287 7.850581 " stroke="#ffffff" stroke-width="5" stroke-opacity="1" stroke-miterlimit="4"/><path stroke-linecap="butt" transform="matrix(-0.566549, 0.49101, -0.49101, -0.566549, 446.333955, 101.130474)" fill="none" stroke-linejoin="miter" d="M 0.00161928 2.500091 L 8.013159 2.500353 " stroke="#ffffff" stroke-width="5" stroke-opacity="1" stroke-miterlimit="4"/><path stroke-linecap="butt" transform="matrix(0, -0.749712, 0.749712, 0, 420.020681, 106.714375)" fill="none" stroke-linejoin="miter" d="M 1.609367 7.881698 C 10.13868 0.707072 18.667992 0.707072 27.197304 7.881698 " stroke="#ffffff" stroke-width="5" stroke-opacity="1" stroke-miterlimit="4"/><path stroke-linecap="butt" transform="matrix(0.749712, 0, 0, 0.749712, 424.905663, 75.74104)" fill="none" stroke-linejoin="miter" d="M 1.36589 14.126739 C 25.177104 -1.373997 48.988319 -1.373997 72.804743 14.126739 " stroke="#ffffff" stroke-width="5" stroke-opacity="1" stroke-miterlimit="4"/><path stroke-linecap="butt" transform="matrix(0, 0.749712, -0.749712, 0, 501.856167, 84.87753)" fill="none" stroke-linejoin="miter" d="M 1.940079 29.840499 C 31.581655 -6.610979 72.118033 -6.610979 123.544003 29.840499 " stroke="#ffffff" stroke-width="5" stroke-opacity="1" stroke-miterlimit="4"/><path stroke-linecap="butt" transform="matrix(-0.455737, 0.595292, -0.595292, -0.455737, 480.969468, 178.641197)" fill="none" stroke-linejoin="miter" d="M -0.0013415 2.502318 L 138.806559 2.498892 " stroke="#ffffff" stroke-width="5" stroke-opacity="1" stroke-miterlimit="4"/><path stroke-linecap="butt" transform="matrix(0.749712, 0, 0, 0.749712, 189.202256, 484.960563)" fill="none" stroke-linejoin="miter" d="M 1.585099 37.702457 C 58.930006 -9.237418 116.274913 -9.237418 173.61982 37.702457 " stroke="#ffffff" stroke-width="5" stroke-opacity="1" stroke-miterlimit="4"/><path stroke-linecap="butt" transform="matrix(-0.0545218, 0.747727, -0.747727, -0.0545218, 400.84876, 407.086677)" fill="none" stroke-linejoin="miter" d="M 0.442994 8.954737 C 48.3898 0.349383 113.15898 0.349275 194.74534 8.954791 " stroke="#ffffff" stroke-width="5" stroke-opacity="1" stroke-miterlimit="4"/><path stroke-linecap="butt" transform="matrix(-0.749712, 0, 0, -0.749712, 383.530111, 554.087381)" fill="none" stroke-linejoin="miter" d="M -0.00151976 2.497674 L 56.525365 2.497674 " stroke="#ffffff" stroke-width="5" stroke-opacity="1" stroke-miterlimit="4"/><path stroke-linecap="butt" transform="matrix(0.365817, 0.654406, -0.654406, 0.365817, 324.354287, 509.681616)" fill="none" stroke-linejoin="miter" d="M 0.883514 8.120666 C 20.741339 0.62739 40.59665 0.624001 60.456 8.12013 " stroke="#ffffff" stroke-width="5" stroke-opacity="1" stroke-miterlimit="4"/><path stroke-linecap="butt" transform="matrix(0.365817, -0.654406, 0.654406, 0.365817, 163.14691, 549.889279)" fill="none" stroke-linejoin="miter" d="M 0.846508 7.850136 C 20.703768 0.713324 40.559079 0.716713 60.418994 7.850672 " stroke="#ffffff" stroke-width="5" stroke-opacity="1" stroke-miterlimit="4"/><path stroke-linecap="butt" transform="matrix(0.749712, 0.000000000000002689, -0.000000000000002689, 0.749712, 121.076368, 550.338819)" fill="none" stroke-linejoin="miter" d="M 0.00234291 2.502326 L 63.386024 2.502326 " stroke="#ffffff" stroke-width="5" stroke-opacity="1" stroke-miterlimit="4"/><path stroke-linecap="butt" transform="matrix(0.209605, -0.719815, 0.719815, 0.209605, 100.481951, 547.020748)" fill="none" stroke-linejoin="miter" d="M 1.03384 28.312085 C 76.607637 -6.105438 152.180169 -6.106218 227.751435 28.309746 " stroke="#ffffff" stroke-width="5" stroke-opacity="1" stroke-miterlimit="4"/><g mask="url(#e501dac658)"><g transform="matrix(1, 0, 0, 1, 325, 235)"><g clip-path="url(#8ba7288acb)"><g clip-path="url(#88d59a66ec)"><g clip-path="url(#b1f0ff6103)"><path fill="#5271ff" d="M 24.46875 25.128906 L 45.324219 25.128906 L 45.324219 45.984375 L 24.46875 45.984375 Z M 24.46875 25.128906 " fill-opacity="1" fill-rule="nonzero"/></g></g><g clip-path="url(#56e03f3fd8)"><g clip-path="url(#6e9f202921)"><path stroke-linecap="butt" transform="matrix(0.749712, 0, 0, 0.749712, 24.469037, 25.129663)" fill="none" stroke-linejoin="miter" d="M 13.905992 -0.00100881 C 6.225963 -0.00100881 -0.000382474 6.225337 -0.000382474 13.905366 C -0.000382474 21.585394 6.225963 27.81174 13.905992 27.81174 C 21.58602 27.81174 27.812366 21.585394 27.812366 13.905366 C 27.812366 6.225337 21.58602 -0.00100881 13.905992 -0.00100881 Z M 13.905992 -0.00100881 " stroke="#ffffff" stroke-width="16" stroke-opacity="1" stroke-miterlimit="4"/></g></g></g></g></g><path stroke-linecap="butt" transform="matrix(0.390032, -0.640268, 0.640268, 0.390032, 378.767388, 263.635359)" fill="none" stroke-linejoin="miter" d="M 0.980508 2.444328 C 19.470884 10.343655 47.394503 10.342898 84.754074 2.446508 " stroke="#ffffff" stroke-width="5" stroke-opacity="1" stroke-miterlimit="4"/><path stroke-linecap="butt" transform="matrix(0.163235, -0.731726, 0.731726, 0.163235, 402.855026, 249.499677)" fill="none" stroke-linejoin="miter" d="M 0.903579 2.329437 C 18.62409 9.207938 36.341792 9.205861 54.058954 2.333379 " stroke="#ffffff" stroke-width="5" stroke-opacity="1" stroke-miterlimit="4"/><path stroke-linecap="butt" transform="matrix(0.387916, -0.641553, 0.641553, 0.387916, 387.364891, 274.280016)" fill="none" stroke-linejoin="miter" d="M -0.000238381 2.500108 C 13.523046 2.500419 27.050789 2.498034 40.574073 2.498345 " stroke="#ffffff" stroke-width="5" stroke-opacity="1" stroke-miterlimit="4"/><path stroke-linecap="butt" transform="matrix(0.442578, 0.605139, -0.605139, 0.442578, 382.226578, 262.857239)" fill="none" stroke-linejoin="miter" d="M 0.0021243 2.499714 C 6.217473 2.501 12.440103 2.501155 18.658528 2.498235 " stroke="#ffffff" stroke-width="5" stroke-opacity="1" stroke-miterlimit="4"/><path stroke-linecap="butt" transform="matrix(0.0597038, 0.747331, -0.747331, 0.0597038, 417.858918, 259.220549)" fill="none" stroke-linejoin="miter" d="M 1.033539 2.277269 C 39.490309 19.718389 68.76097 19.720363 88.840743 2.277583 " stroke="#ffffff" stroke-width="5" stroke-opacity="1" stroke-miterlimit="4"/><path stroke-linecap="butt" transform="matrix(-0.235951, 0.711615, -0.711615, -0.235951, 423.3275, 325.549303)" fill="none" stroke-linejoin="miter" d="M 1.031075 2.275632 C 39.655577 19.797103 78.273277 19.799063 116.894067 2.278233 " stroke="#ffffff" stroke-width="5" stroke-opacity="1" stroke-miterlimit="4"/></svg>